<svg version="1.1" viewBox="0.0 0.0 483.6010498687664 213.43307086614172" fill="none" stroke="none" stroke-linecap="square" stroke-miterlimit="10" xmlns:xlink="http://www.w3.org/1999/xlink" xmlns="http://www.w3.org/2000/svg"><clipPath id="p.0"><path d="m0 0l483.60104 0l0 213.43307l-483.60104 0l0 -213.43307z" clip-rule="nonzero"/></clipPath><g clip-path="url(#p.0)"><path fill="#000000" fill-opacity="0.0" d="m0 0l483.60104 0l0 213.43307l-483.60104 0z" fill-rule="evenodd"/><defs><radialGradient id="p.1" gradientUnits="userSpaceOnUse" gradientTransform="matrix(0.0 -7.088704637079932 7.088704637079932 0.0 0.0 0.0)" spreadMethod="pad" cx="-15.054448012243727" cy="44.906344922376945" fx="-15.054448012243727" fy="44.906344922376945" r="7.088704586029053"><stop offset="0.0" stop-color="#4d4d4d"/><stop offset="1.0" stop-color="#000000"/></radialGradient></defs><path fill="url(#p.1)" d="m303.60382 151.28346l0 0c4.688141 0 8.488617 -19.953293 8.488617 -44.566925c0 -24.61364 -3.800476 -44.566933 -8.488617 -44.566933l29.447968 0c4.688141 0 8.488617 19.953293 8.488617 44.566933c0 24.613632 -3.800476 44.566925 -8.488617 44.566925z" fill-rule="evenodd"/><defs><radialGradient id="p.2" gradientUnits="userSpaceOnUse" gradientTransform="matrix(0.0 -7.088704637079932 7.088704637079932 0.0 0.0 0.0)" spreadMethod="pad" cx="-15.054448012243727" cy="44.906344922376945" fx="-15.054448012243727" fy="44.906344922376945" r="7.088704586029053"><stop offset="0.0" stop-color="#4d4d4d"/><stop offset="1.0" stop-color="#000000"/></radialGradient></defs><path fill="url(#p.2)" d="m303.60382 151.28346l0 0c-4.6881104 0 -8.488617 -19.953293 -8.488617 -44.566925c0 -24.61364 3.8005066 -44.566933 8.488617 -44.566933l0 0c4.688141 0 8.488617 19.953293 8.488617 44.566933c0 24.613632 -3.800476 44.566925 -8.488617 44.566925z" fill-rule="evenodd"/><path fill="#000000" fill-opacity="0.0" d="m303.60382 62.149605l0 0c4.688141 0 8.488617 19.953293 8.488617 44.566933c0 24.613632 -3.800476 44.566925 -8.488617 44.566925l0 0c-4.6881104 0 -8.488617 -19.953293 -8.488617 -44.566925c0 -24.61364 3.8005066 -44.566933 8.488617 -44.566933l29.447968 0c4.688141 0 8.488617 19.953293 8.488617 44.566933c0 24.613632 -3.800476 44.566925 -8.488617 44.566925l-29.447968 0" fill-rule="evenodd"/><path fill="#ffffff" fill-opacity="0.4" d="m303.60382 151.28346l0 0c-4.6881104 0 -8.488617 -19.953293 -8.488617 -44.566925c0 -24.61364 3.8005066 -44.566933 8.488617 -44.566933l0 0c4.688141 0 8.488617 19.953293 8.488617 44.566933c0 24.613632 -3.800476 44.566925 -8.488617 44.566925z" fill-rule="evenodd"/><path stroke="#000000" stroke-width="1.0" stroke-linejoin="round" stroke-linecap="butt" d="m303.60382 62.149605l0 0c4.688141 0 8.488617 19.953293 8.488617 44.566933c0 24.613632 -3.800476 44.566925 -8.488617 44.566925l0 0c-4.6881104 0 -8.488617 -19.953293 -8.488617 -44.566925c0 -24.61364 3.8005066 -44.566933 8.488617 -44.566933l29.447968 0c4.688141 0 8.488617 19.953293 8.488617 44.566933c0 24.613632 -3.800476 44.566925 -8.488617 44.566925l-29.447968 0" fill-rule="evenodd"/><defs><linearGradient id="p.3" gradientUnits="userSpaceOnUse" gradientTransform="matrix(4.277809423219959 0.0 0.0 4.277809423219959 0.0 0.0)" spreadMethod="pad" x1="42.61223781752888" y1="22.80672376422232" x2="42.61222343733052" y2="27.08453318741811"><stop offset="0.0" stop-color="#f2f2f2"/><stop offset="1.0" stop-color="#a6a6a6"/></linearGradient></defs><path fill="url(#p.3)" d="m182.28702 106.712875l0 0c0 -2.426628 6.4541473 -4.753868 17.942596 -6.4697495c11.488449 -1.715889 27.07013 -2.679863 43.317245 -2.679863l0 0c33.83287 0 61.259842 4.0964203 61.259842 9.149612l0 0c0 5.0531845 -27.426971 9.149605 -61.259842 9.149605l0 0c-33.83287 0 -61.259842 -4.0964203 -61.259842 -9.149605z" fill-rule="evenodd"/><path stroke="#000000" stroke-width="1.0" stroke-linejoin="round" stroke-linecap="butt" d="m182.28702 106.712875l0 0c0 -2.426628 6.4541473 -4.753868 17.942596 -6.4697495c11.488449 -1.715889 27.07013 -2.679863 43.317245 -2.679863l0 0c33.83287 0 61.259842 4.0964203 61.259842 9.149612l0 0c0 5.0531845 -27.426971 9.149605 -61.259842 9.149605l0 0c-33.83287 0 -61.259842 -4.0964203 -61.259842 -9.149605z" fill-rule="evenodd"/><path fill="#000000" d="m147.86362 151.28346l0 0c3.2050018 0 5.8031616 -19.953293 5.8031616 -44.566925c0 -24.61364 -2.5981598 -44.566933 -5.8031616 -44.566933l34.81891 0c3.2049866 0 5.8031464 19.953293 5.8031464 44.566933c0 24.613632 -2.5981598 44.566925 -5.8031464 44.566925z" fill-rule="evenodd"/><path fill="#666666" d="m147.86362 151.28346l0 0c-3.2049866 0 -5.8031464 -19.953293 -5.8031464 -44.566925c0 -24.61364 2.5981598 -44.566933 5.8031464 -44.566933l0 0c3.2050018 0 5.8031616 19.953293 5.8031616 44.566933c0 24.613632 -2.5981598 44.566925 -5.8031616 44.566925z" fill-rule="evenodd"/><path fill="#000000" fill-opacity="0.0" d="m147.86362 62.149605l0 0c3.2050018 0 5.8031616 19.953293 5.8031616 44.566933c0 24.613632 -2.5981598 44.566925 -5.8031616 44.566925l0 0c-3.2049866 0 -5.8031464 -19.953293 -5.8031464 -44.566925c0 -24.61364 2.5981598 -44.566933 5.8031464 -44.566933l34.81891 0c3.2049866 0 5.8031464 19.953293 5.8031464 44.566933c0 24.613632 -2.5981598 44.566925 -5.8031464 44.566925l-34.81891 0" fill-rule="evenodd"/><path stroke="#000000" stroke-width="1.0" stroke-linejoin="round" stroke-linecap="butt" d="m147.86362 62.149605l0 0c3.2050018 0 5.8031616 19.953293 5.8031616 44.566933c0 24.613632 -2.5981598 44.566925 -5.8031616 44.566925l0 0c-3.2049866 0 -5.8031464 -19.953293 -5.8031464 -44.566925c0 -24.61364 2.5981598 -44.566933 5.8031464 -44.566933l34.81891 0c3.2049866 0 5.8031464 19.953293 5.8031464 44.566933c0 24.613632 -2.5981598 44.566925 -5.8031464 44.566925l-34.81891 0" fill-rule="evenodd"/><path fill="#000000" fill-opacity="0.0" d="m243.54686 97.56326l0 18.299217" fill-rule="evenodd"/><path stroke="#000000" stroke-width="1.0" stroke-linejoin="round" stroke-linecap="butt" d="m243.54686 97.56326l0 18.299217" fill-rule="evenodd"/><path fill="#000000" fill-opacity="0.0" d="m200.22961 100.243126l0 12.944878" fill-rule="evenodd"/><path stroke="#000000" stroke-width="1.0" stroke-linejoin="round" stroke-linecap="butt" d="m200.22961 100.243126l0 12.944878" fill-rule="evenodd"/><path fill="#000000" fill-opacity="0.0" d="m286.8641 100.243126l0 12.944878" fill-rule="evenodd"/><path stroke="#000000" stroke-width="1.0" stroke-linejoin="round" stroke-linecap="butt" d="m286.8641 100.243126l0 12.944878" fill-rule="evenodd"/></g></svg>